<?xml version="1.0" encoding="UTF-8"?>
<!DOCTYPE svg PUBLIC "-//W3C//DTD SVG 1.1//EN" "http://www.w3.org/Graphics/SVG/1.1/DTD/svg11.dtd">
<!-- Creator: CorelDRAW X7 -->
<svg xmlns="http://www.w3.org/2000/svg" xml:space="preserve" width="5.68mm" height="5.42mm" version="1.1" style="shape-rendering:geometricPrecision; text-rendering:geometricPrecision; image-rendering:optimizeQuality; fill-rule:evenodd; clip-rule:evenodd"
viewBox="0 0 568 542"
 xmlns:xlink="http://www.w3.org/1999/xlink">
 <defs>
  <style type="text/css">
   <![CDATA[
    .fil0 {fill:none}
    .fil1 {fill:#7E98DF}
   ]]>
  </style>
 </defs>
 <g id="Layer_x0020_1">
  <metadata id="CorelCorpID_0Corel-Layer"/>
  <g id="_256217456">
   <polygon class="fil0" points="0,0 568,0 568,542 0,542 "/>
   <path class="fil1" d="M266 271l54 -54c0,0 0,0 0,0l7 -7c5,-5 5,-13 0,-18 -6,-6 -14,-6 -19,0l-3 2 0 0 -61 61c-9,9 -9,23 0,32l57 57 4 4 3 2c5,6 13,6 19,0 5,-5 5,-13 0,-18l-3 -3 -4 -4c0,0 0,0 0,0l-54 -54z"/>
  </g>
 </g>
</svg>
