<?xml version="1.0" encoding="UTF-8"?>
<!DOCTYPE svg PUBLIC "-//W3C//DTD SVG 1.1//EN" "http://www.w3.org/Graphics/SVG/1.1/DTD/svg11.dtd">
<!-- Creator: CorelDRAW X7 -->
<svg xmlns="http://www.w3.org/2000/svg" xml:space="preserve" width="2.032mm" height="2.032mm" version="1.1" style="shape-rendering:geometricPrecision; text-rendering:geometricPrecision; image-rendering:optimizeQuality; fill-rule:evenodd; clip-rule:evenodd"
viewBox="0 0 19 19"
 xmlns:xlink="http://www.w3.org/1999/xlink">
 <defs>
  <style type="text/css">
   <![CDATA[
    .fil0 {fill:#FF5B37;fill-rule:nonzero}
   ]]>
  </style>
 </defs>
 <g id="Layer_x0020_1">
  <metadata id="CorelCorpID_0Corel-Layer"/>
  <path class="fil0" d="M2 18c0,0 0,1 -1,1 -1,0 -1,-1 -1,-1 0,-3 2,-4 4,-5 1,0 2,0 2,-1 -1,-1 -2,-2 -2,-6 0,-4 2,-6 5,-6 2,0 3,1 4,2 1,1 2,2 2,4 0,4 -2,5 -3,6 1,1 2,1 3,1 2,1 4,2 4,5 0,0 -1,1 -1,1 -1,0 -1,-1 -1,-1 0,-2 -2,-2 -3,-3 -1,0 -2,-1 -3,-2 -1,-1 -1,-1 0,-2 0,-1 1,-2 1,-5 0,-1 0,-2 0,-3 -1,-1 -2,-1 -3,-1 -2,0 -3,1 -3,4 0,3 1,4 2,5 1,1 1,1 0,2 -1,1 -2,2 -3,2 -2,1 -3,1 -3,3z"/>
 </g>
</svg>
